<svg xmlns="http://www.w3.org/2000/svg" viewBox="0 0 1024 1024" width="1024" height="1024">

  <defs>
    <linearGradient id="nutRim" x1="0" y1="226" x2="0" y2="798" gradientUnits="userSpaceOnUse">
      <stop offset="0" stop-color="#F0997F"></stop><stop offset="1" stop-color="#C04D3E"></stop>
    </linearGradient>
    <linearGradient id="nutFace" x1="0" y1="252" x2="0" y2="772" gradientUnits="userSpaceOnUse">
      <stop offset="0" stop-color="#EB966A"></stop><stop offset="0.5" stop-color="#EA7C69"></stop><stop offset="1" stop-color="#D85C4E"></stop>
    </linearGradient>
    
  <radialGradient id="hole" cx="512" cy="480" r="190" gradientUnits="userSpaceOnUse">
    <stop offset="0" stop-color="#0D0B12"></stop>
    <stop offset="1" stop-color="#1C1828"></stop>
  </radialGradient>
  </defs>
  
  <defs>
    <linearGradient id="bg-a" x1="0" y1="0" x2="0" y2="1024" gradientUnits="userSpaceOnUse">
      <stop offset="0" stop-color="#262232"></stop>
      <stop offset="0.55" stop-color="#1A1724"></stop>
      <stop offset="1" stop-color="#100E16"></stop>
    </linearGradient>
    <radialGradient id="glow-a" cx="512" cy="400" r="480" gradientUnits="userSpaceOnUse">
      <stop offset="0" stop-color="#EA7C69" stop-opacity="0.22"></stop>
      <stop offset="0.7" stop-color="#EA7C69" stop-opacity="0.04"></stop>
      <stop offset="1" stop-color="#EA7C69" stop-opacity="0"></stop>
    </radialGradient>
  </defs>
  <rect x="0" y="0" width="1024" height="1024" rx="230" fill="url(#bg-a)"></rect>
  <rect x="0" y="0" width="1024" height="1024" rx="230" fill="url(#glow-a)"></rect>
  <rect x="2" y="2" width="1020" height="1020" rx="228" fill="none" stroke="#ffffff" stroke-opacity="0.06" stroke-width="3"></rect>
  <polygon points="842,512 677,226.2 347,226.2 182,512 347,797.8 677,797.8" fill="url(#nutRim)"></polygon>
  <polygon points="812,512 662,252.2 362,252.2 212,512 362,771.8 662,771.8" fill="url(#nutFace)"></polygon>
  <polygon points="812,512 662,252.2 362,252.2 212,512 362,771.8 662,771.8" fill="none" stroke="#ffffff" stroke-opacity="0.16" stroke-width="6" stroke-linejoin="round"></polygon>
  <circle cx="512" cy="512" r="156" fill="url(#hole)"></circle>
  <circle cx="512" cy="512" r="156" fill="none" stroke="#C04D3E" stroke-width="10"></circle>
  <circle cx="512" cy="512" r="150" fill="none" stroke="#000000" stroke-opacity="0.35" stroke-width="6"></circle>
</svg>